<svg width="137" height="24" viewBox="0 0 137 24" fill="none" xmlns="http://www.w3.org/2000/svg">
<path d="M122.496 23.1939V0.806084H125.886V20.2861H136.066V23.1939H122.496Z" fill="#351C42"/>
<path d="M103.69 23.1939H100.092L108.177 0.806084H112.093L120.178 23.1939H116.58L110.228 4.87262H110.053L103.69 23.1939ZM104.293 14.4268H115.966V17.269H104.293V14.4268Z" fill="#351C42"/>
<path d="M83.4258 23.1939V0.806084H91.4341C93.1747 0.806084 94.6191 1.10488 95.7674 1.70247C96.9229 2.30006 97.7859 3.12722 98.3563 4.18394C98.9268 5.23337 99.212 6.44677 99.212 7.82414C99.212 9.19423 98.9231 10.4003 98.3454 11.4425C97.7749 12.4773 96.9119 13.2826 95.7564 13.8584C94.6082 14.4341 93.1637 14.722 91.4231 14.722H85.3566V11.8142H91.116C92.213 11.8142 93.1052 11.6575 93.7927 11.3441C94.4875 11.0307 94.9958 10.5753 95.3176 9.97766C95.6394 9.38007 95.8003 8.66223 95.8003 7.82414C95.8003 6.97877 95.6357 6.24636 95.3066 5.6269C94.9848 5.00745 94.4765 4.53375 93.7817 4.2058C93.0943 3.87056 92.191 3.70295 91.0721 3.70295H86.8156V23.1939H83.4258ZM94.5167 13.0932L100.068 23.1939H96.2062L90.7649 13.0932H94.5167Z" fill="#351C42"/>
<path d="M80.1269 12C80.1269 14.3904 79.6881 16.4455 78.8105 18.1654C77.9328 19.878 76.7298 21.1971 75.2012 22.1226C73.68 23.0409 71.9504 23.5 70.0123 23.5C68.0669 23.5 66.3299 23.0409 64.8014 22.1226C63.2802 21.1971 62.0808 19.8744 61.2032 18.1545C60.3255 16.4346 59.8867 14.3831 59.8867 12C59.8867 9.60963 60.3255 7.55814 61.2032 5.84553C62.0808 4.12563 63.2802 2.80656 64.8014 1.88831C66.3299 0.962769 68.0669 0.5 70.0123 0.5C71.9504 0.5 73.68 0.962769 75.2012 1.88831C76.7298 2.80656 77.9328 4.12563 78.8105 5.84553C79.6881 7.55814 80.1269 9.60963 80.1269 12ZM76.77 12C76.77 10.1781 76.4738 8.64401 75.8814 7.39781C75.2963 6.14433 74.4918 5.19693 73.4679 4.55561C72.4514 3.907 71.2995 3.5827 70.0123 3.5827C68.7178 3.5827 67.5623 3.907 66.5457 4.55561C65.5291 5.19693 64.7246 6.14433 64.1322 7.39781C63.5471 8.64401 63.2546 10.1781 63.2546 12C63.2546 13.8219 63.5471 15.3596 64.1322 16.6131C64.7246 17.8593 65.5291 18.8067 66.5457 19.4553C67.5623 20.0966 68.7178 20.4173 70.0123 20.4173C71.2995 20.4173 72.4514 20.0966 73.4679 19.4553C74.4918 18.8067 75.2963 17.8593 75.8814 16.6131C76.4738 15.3596 76.77 13.8219 76.77 12Z" fill="#351C42"/>
<path d="M33.8125 0.806084H37.9264L45.079 18.2091H45.3423L52.4949 0.806084H56.6088V23.1939H53.3835V6.99335H53.1751L46.549 23.1611H43.8723L37.2462 6.98241H37.0378V23.1939H33.8125V0.806084Z" fill="#351C42"/>
<path d="M2.61294 3.76473C-0.632934 8.75156 1.67555 13.0584 3.81779 15.2928C4.20832 15.7002 4.8557 15.6351 5.19969 15.1878C7.29866 12.4583 10.6185 7.93603 12.5657 9C15.0791 10.3733 16.5031 11.0225 17.2622 11.2234C17.6941 11.3377 17.7948 10.9499 17.5455 10.5792C16.4367 8.93057 15.0337 6.29856 14.3721 4.98996C14.3449 4.93627 14.3125 4.88454 14.2759 4.83674C9.65865 -1.20449 4.67519 1.49018 2.70244 3.64849C2.6694 3.68464 2.63967 3.72367 2.61294 3.76473Z" fill="#351C42"/>
<path d="M6.51923 16.4989L11.4022 11.2177C11.7711 10.8187 12.3936 10.7935 12.8155 11.1359C18.7236 15.9315 19.78 11.4843 19.3126 10.2279C18.6088 8.3363 17.2114 6.59175 16.4291 5.39965C16.051 4.8235 16.176 4.09709 16.6632 3.60972C22.2593 -1.98842 26.648 3.44727 27.4697 4.42713C28.1611 5.25155 31.1191 9.9862 25.5234 15.787C21.2347 20.2328 16.4547 22.2628 14.5636 22.9213C14.4196 22.9714 14.2623 22.9362 14.1499 22.8333C13.9808 22.6785 13.9667 22.4168 14.1183 22.2447L16.7555 19.2505C17.0344 18.9338 17.0194 18.455 16.7212 18.1564L16.6688 18.1038C16.3422 17.7768 15.8073 17.7938 15.5021 18.1407L12.9115 21.0855C12.6208 21.416 12.1175 21.4491 11.786 21.1596C11.4478 20.8642 11.4193 20.3484 11.7228 20.0175L14.2762 17.234C14.5755 16.9078 14.5529 16.4006 14.2259 16.1022L14.1644 16.0461C13.835 15.7457 13.3236 15.7724 13.0273 16.1057L10.095 19.4046C9.80776 19.7277 9.30791 19.7426 9.00199 19.4372C8.71732 19.153 8.70682 18.6951 8.97817 18.3981L11.8376 15.2689C12.1389 14.9391 12.1118 14.4265 11.7774 14.1304L11.6635 14.0295C11.3332 13.7369 10.8283 13.7671 10.5352 14.0969L7.56075 17.4431C7.29214 17.7453 6.82461 17.7591 6.53857 17.4734C6.27138 17.2065 6.26284 16.7762 6.51923 16.4989Z" fill="#351C42"/>
<path d="M2.61294 3.76473C-0.632934 8.75156 1.67555 13.0584 3.81779 15.2928C4.20832 15.7002 4.8557 15.6351 5.19969 15.1878C7.29866 12.4583 10.6185 7.93603 12.5657 9C15.0791 10.3733 16.5031 11.0225 17.2622 11.2234C17.6941 11.3377 17.7948 10.9499 17.5455 10.5792C16.4367 8.93057 15.0337 6.29856 14.3721 4.98996C14.3449 4.93627 14.3125 4.88454 14.2759 4.83674C9.65865 -1.20449 4.67519 1.49018 2.70244 3.64849C2.6694 3.68464 2.63967 3.72367 2.61294 3.76473Z" stroke="#351C42" stroke-linecap="round"/>
<path d="M6.51923 16.4989L11.4022 11.2177C11.7711 10.8187 12.3936 10.7935 12.8155 11.1359C18.7236 15.9315 19.78 11.4843 19.3126 10.2279C18.6088 8.3363 17.2114 6.59175 16.4291 5.39965C16.051 4.8235 16.176 4.09709 16.6632 3.60972C22.2593 -1.98842 26.648 3.44727 27.4697 4.42713C28.1611 5.25155 31.1191 9.9862 25.5234 15.787C21.2347 20.2328 16.4547 22.2628 14.5636 22.9213C14.4196 22.9714 14.2623 22.9362 14.1499 22.8333C13.9808 22.6785 13.9667 22.4168 14.1183 22.2447L16.7555 19.2505C17.0344 18.9338 17.0194 18.455 16.7212 18.1564L16.6688 18.1038C16.3422 17.7768 15.8073 17.7938 15.5021 18.1407L12.9115 21.0855C12.6208 21.416 12.1175 21.4491 11.786 21.1596C11.4478 20.8642 11.4193 20.3484 11.7228 20.0175L14.2762 17.234C14.5755 16.9078 14.5529 16.4006 14.2259 16.1022L14.1644 16.0461C13.835 15.7457 13.3236 15.7724 13.0273 16.1057L10.095 19.4046C9.80776 19.7277 9.30791 19.7426 9.00199 19.4372C8.71732 19.153 8.70682 18.6951 8.97817 18.3981L11.8376 15.2689C12.1389 14.9391 12.1118 14.4265 11.7774 14.1304L11.6635 14.0295C11.3332 13.7369 10.8283 13.7671 10.5352 14.0969L7.56075 17.4431C7.29214 17.7453 6.82461 17.7591 6.53857 17.4734C6.27138 17.2065 6.26284 16.7762 6.51923 16.4989Z" stroke="#351C42" stroke-linecap="round"/>
</svg>
