<svg width="136" height="23" viewBox="0 0 136 23" fill="none" xmlns="http://www.w3.org/2000/svg">
<path d="M122.436 22.6935V0.305664H125.824V19.7857H135.999V22.6935H122.436Z" fill="white"/>
<path d="M103.639 22.6935H100.043L108.124 0.305664H112.039L120.12 22.6935H116.523L110.175 4.3722H109.999L103.639 22.6935ZM104.243 13.9264H115.909V16.7686H104.243V13.9264Z" fill="white"/>
<path d="M83.3848 22.6935V0.305664H91.3892C93.129 0.305664 94.5727 0.60446 95.7203 1.20205C96.8753 1.79964 97.7379 2.6268 98.3081 3.68352C98.8782 4.73295 99.1633 5.94635 99.1633 7.32373C99.1633 8.69381 98.8746 9.89993 98.2971 10.9421C97.7269 11.9769 96.8643 12.7822 95.7094 13.3579C94.5617 13.9337 93.118 14.2215 91.3782 14.2215H85.3146V11.3137H91.0712C92.1677 11.3137 93.0595 11.1571 93.7466 10.8437C94.4411 10.5303 94.9491 10.0748 95.2708 9.47724C95.5924 8.87965 95.7532 8.16181 95.7532 7.32373C95.7532 6.47835 95.5888 5.74594 95.2598 5.12648C94.9382 4.50703 94.4301 4.03333 93.7357 3.70538C93.0485 3.37015 92.1458 3.20253 91.0273 3.20253H86.7729V22.6935H83.3848ZM94.4703 12.5927L100.019 22.6935H96.1589L90.7203 12.5927H94.4703Z" fill="white"/>
<path d="M80.0858 11.5C80.0858 13.8904 79.6472 15.9455 78.77 17.6654C77.8928 19.378 76.6903 20.6971 75.1625 21.6226C73.6421 22.5409 71.9133 23 69.9761 23C68.0317 23 66.2955 22.5409 64.7678 21.6226C63.2473 20.6971 62.0485 19.3744 61.1713 17.6545C60.2941 15.9346 59.8555 13.8831 59.8555 11.5C59.8555 9.10963 60.2941 7.05814 61.1713 5.34553C62.0485 3.62563 63.2473 2.30656 64.7678 1.38831C66.2955 0.462769 68.0317 0 69.9761 0C71.9133 0 73.6421 0.462769 75.1625 1.38831C76.6903 2.30656 77.8928 3.62563 78.77 5.34553C79.6472 7.05814 80.0858 9.10963 80.0858 11.5ZM76.7305 11.5C76.7305 9.67807 76.4345 8.14401 75.8424 6.89781C75.2576 5.64433 74.4535 4.69693 73.4301 4.05561C72.414 3.407 71.2627 3.0827 69.9761 3.0827C68.6822 3.0827 67.5273 3.407 66.5112 4.05561C65.4951 4.69693 64.691 5.64433 64.0989 6.89781C63.5141 8.14401 63.2217 9.67807 63.2217 11.5C63.2217 13.3219 63.5141 14.8596 64.0989 16.1131C64.691 17.3593 65.4951 18.3067 66.5112 18.9553C67.5273 19.5966 68.6822 19.9173 69.9761 19.9173C71.2627 19.9173 72.414 19.5966 73.4301 18.9553C74.4535 18.3067 75.2576 17.3593 75.8424 16.1131C76.4345 14.8596 76.7305 13.3219 76.7305 11.5Z" fill="white"/>
<path d="M33.7949 0.305664H37.9068L45.0559 17.7087H45.3191L52.4682 0.305664H56.5801V22.6935H53.3564V6.49293H53.1481L46.5252 22.6607H43.8498L37.2269 6.48199H37.0186V22.6935H33.7949V0.305664Z" fill="white"/>
<path d="M2.61216 3.2643C-0.631876 8.25073 1.67484 12.5573 3.8159 14.7919C4.20643 15.1994 4.85406 15.1344 5.19805 14.6868C7.29603 11.9573 10.6139 7.43568 12.5601 8.49957C15.0722 9.87288 16.4956 10.5221 17.2543 10.723C17.6861 10.8373 17.7867 10.4496 17.5376 10.079C16.4293 8.43036 15.0269 5.79817 14.3656 4.48952C14.3384 4.43584 14.306 4.38412 14.2695 4.33631C9.65445 -1.70491 4.67341 0.989746 2.70162 3.14805C2.66858 3.18421 2.63887 3.22324 2.61216 3.2643Z" fill="white"/>
<path d="M6.5163 15.9987L11.3967 10.7177C11.7656 10.3185 12.3884 10.2933 12.8104 10.636C18.715 15.4308 19.7709 10.9838 19.3036 9.72747C18.6002 7.83571 17.2032 6.09102 16.4214 4.89891C16.0436 4.32289 16.1686 3.59677 16.6554 3.10946C22.2489 -2.48896 26.6355 2.94683 27.4568 3.9267C28.1479 4.75112 31.1044 9.48577 25.5114 15.2865C21.225 19.7323 16.4475 21.7623 14.5572 22.4208C14.4132 22.471 14.2558 22.4358 14.1434 22.3328C13.9744 22.178 13.9604 21.9164 14.1118 21.7444L16.748 18.7499C17.0267 18.4333 17.0117 17.9546 16.7137 17.6561L16.6616 17.6039C16.335 17.2767 15.7999 17.2936 15.4946 17.6408L12.906 20.5848C12.6153 20.9154 12.1119 20.9485 11.7804 20.6589C11.4426 20.3636 11.414 19.8481 11.7172 19.5174L14.2699 16.7335C14.569 16.4073 14.5465 15.9002 14.2196 15.6019L14.1585 15.5461C13.829 15.2455 13.3173 15.2723 13.0211 15.6057L10.0908 18.9039C9.80363 19.2271 9.3037 19.242 8.99783 18.9365C8.71341 18.6524 8.70292 18.1948 8.97402 17.898L11.8324 14.7683C12.1336 14.4386 12.1065 13.9262 11.7723 13.63L11.6588 13.5295C11.3284 13.2367 10.8234 13.2669 10.5302 13.5969L7.55777 16.9424C7.28922 17.2447 6.82162 17.2586 6.53563 16.9727C6.26867 16.7059 6.26013 16.2759 6.5163 15.9987Z" fill="white"/>
<path d="M2.61216 3.2643C-0.631876 8.25073 1.67484 12.5573 3.8159 14.7919C4.20643 15.1994 4.85406 15.1344 5.19805 14.6868C7.29603 11.9573 10.6139 7.43568 12.5601 8.49957C15.0722 9.87288 16.4956 10.5221 17.2543 10.723C17.6861 10.8373 17.7867 10.4496 17.5376 10.079C16.4293 8.43036 15.0269 5.79817 14.3656 4.48952C14.3384 4.43584 14.306 4.38412 14.2695 4.33631C9.65445 -1.70491 4.67341 0.989746 2.70162 3.14805C2.66858 3.18421 2.63887 3.22324 2.61216 3.2643Z" stroke="white" stroke-linecap="round"/>
<path d="M6.5163 15.9987L11.3967 10.7177C11.7656 10.3185 12.3884 10.2933 12.8104 10.636C18.715 15.4308 19.7709 10.9838 19.3036 9.72747C18.6002 7.83571 17.2032 6.09102 16.4214 4.89891C16.0436 4.32289 16.1686 3.59677 16.6554 3.10946C22.2489 -2.48896 26.6355 2.94683 27.4568 3.9267C28.1479 4.75112 31.1044 9.48577 25.5114 15.2865C21.225 19.7323 16.4475 21.7623 14.5572 22.4208C14.4132 22.471 14.2558 22.4358 14.1434 22.3328C13.9744 22.178 13.9604 21.9164 14.1118 21.7444L16.748 18.7499C17.0267 18.4333 17.0117 17.9546 16.7137 17.6561L16.6616 17.6039C16.335 17.2767 15.7999 17.2936 15.4946 17.6408L12.906 20.5848C12.6153 20.9154 12.1119 20.9485 11.7804 20.6589C11.4426 20.3636 11.414 19.8481 11.7172 19.5174L14.2699 16.7335C14.569 16.4073 14.5465 15.9002 14.2196 15.6019L14.1585 15.5461C13.829 15.2455 13.3173 15.2723 13.0211 15.6057L10.0908 18.9039C9.80363 19.2271 9.3037 19.242 8.99783 18.9365C8.71341 18.6524 8.70292 18.1948 8.97402 17.898L11.8324 14.7683C12.1336 14.4386 12.1065 13.9262 11.7723 13.63L11.6588 13.5295C11.3284 13.2367 10.8234 13.2669 10.5302 13.5969L7.55777 16.9424C7.28922 17.2447 6.82162 17.2586 6.53563 16.9727C6.26867 16.7059 6.26013 16.2759 6.5163 15.9987Z" stroke="white" stroke-linecap="round"/>
</svg>
