<svg width="14" height="10" viewBox="0 0 14 10" fill="none" xmlns="http://www.w3.org/2000/svg">
<path d="M12.0798 1.65707L12.0797 1.65714L12.0865 1.66401C12.1753 1.75365 12.268 1.95009 12.3394 2.19293C12.3716 2.30274 12.3944 2.40375 12.4091 2.47725C12.4163 2.51372 12.4214 2.54271 12.4246 2.56177L12.4279 2.58242L12.428 2.58263L12.4284 2.58618L12.432 2.61701C12.4351 2.6444 12.4396 2.68512 12.4451 2.73726C12.4561 2.84158 12.4707 2.99129 12.4854 3.17112C12.5149 3.53212 12.544 4.00857 12.544 4.48057V5.40001C12.544 5.87321 12.5149 6.34967 12.4854 6.71031C12.4707 6.88998 12.4561 7.03945 12.4451 7.14356C12.4397 7.19559 12.4351 7.23622 12.432 7.26354L12.4284 7.29429L12.428 7.29788L12.4279 7.29815L12.4246 7.3188C12.4214 7.33786 12.4163 7.36685 12.4091 7.40332C12.3944 7.47682 12.3716 7.57783 12.3394 7.68763C12.268 7.93046 12.1753 8.12689 12.0865 8.21652L12.0865 8.21645L12.0798 8.22349C11.7974 8.52007 11.5115 8.55001 11.2597 8.57638C11.2339 8.57908 11.2085 8.58174 11.1835 8.58465C10.3536 8.64356 9.31215 8.67457 8.47151 8.69075C8.05038 8.69885 7.68176 8.7032 7.41849 8.70553C7.28688 8.70669 7.18167 8.70734 7.10947 8.70771L7.02677 8.70806L7.00555 8.70812L7.00025 8.70814L6.99522 8.70808L6.96896 8.70782L6.86805 8.70677C6.78057 8.70581 6.65443 8.70434 6.49999 8.70229C6.19106 8.69819 5.76925 8.69177 5.31749 8.68247C4.41901 8.66397 3.42928 8.63452 2.95839 8.59157C2.87769 8.5768 2.79904 8.56632 2.7223 8.55609C2.42841 8.51691 2.16258 8.48148 1.91689 8.22347L1.91693 8.22343L1.91127 8.21767C1.82309 8.12802 1.73072 7.9313 1.65953 7.68816C1.62735 7.57824 1.60462 7.47713 1.59001 7.40356C1.58276 7.36704 1.57765 7.33802 1.57446 7.31893L1.57114 7.29823L1.5711 7.29796L1.57067 7.29438L1.56709 7.26355C1.56396 7.23616 1.55942 7.19544 1.55395 7.14331C1.54299 7.03899 1.52832 6.88928 1.51363 6.70944C1.48413 6.34845 1.45508 5.87201 1.45508 5.40001V4.48057C1.45508 4.00893 1.48468 3.53277 1.51474 3.17192C1.52971 2.99218 1.54467 2.84254 1.55583 2.73828C1.56141 2.68618 1.56603 2.64549 1.56922 2.61812L1.57287 2.58733L1.57346 2.58245L1.57367 2.58104L1.57693 2.56043C1.58006 2.54139 1.58509 2.51242 1.59224 2.47598C1.60667 2.40253 1.62917 2.3016 1.66116 2.19188C1.73195 1.94915 1.82417 1.75325 1.9125 1.66402L1.91256 1.66409L1.91923 1.65709C2.2017 1.3605 2.48762 1.33056 2.73937 1.3042C2.76525 1.30149 2.79077 1.29882 2.81589 1.2959C3.64526 1.23585 4.68578 1.20542 5.52585 1.19012C5.94658 1.18246 6.31482 1.17863 6.57779 1.17672C6.70926 1.17576 6.81434 1.17528 6.88645 1.17504L6.96903 1.17483L6.99021 1.17481L6.99551 1.17481L6.99679 1.1748L6.99709 1.1748H6.99716H7.00188H7.00195L7.00225 1.1748L7.00354 1.17481L7.00883 1.17481L7.03001 1.17483L7.11259 1.17504C7.1847 1.17528 7.28979 1.17576 7.42125 1.17672C7.68423 1.17863 8.05247 1.18246 8.47321 1.19012C9.31329 1.20542 10.3538 1.23585 11.1832 1.2959C11.2083 1.29882 11.2338 1.30149 11.2597 1.3042C11.5114 1.33057 11.7974 1.36051 12.0798 1.65707ZM5.2505 6.51614V7.33995L5.98129 6.95969L9.24667 5.26061L10.0961 4.8186L9.24793 4.37418L5.98255 2.66324L5.2505 2.27967V3.10613V6.51614Z" fill="#B29FBC" stroke="#B29FBC"/>
</svg>
